<mxfile host="app.diagrams.net" modified="2021-07-17T13:58:16.219Z" agent="5.0 (Macintosh; Intel Mac OS X 10_15_7) AppleWebKit/605.1.15 (KHTML, like Gecko) Version/14.1.1 Safari/605.1.15" etag="MDVSB7S9_fYONEo1CU8M" version="14.6.11" type="github">
  <diagram id="AstivTm_b-F5dJJNqtnA" name="第 1 页">
    <mxGraphModel dx="1163" dy="712" grid="1" gridSize="10" guides="1" tooltips="1" connect="1" arrows="1" fold="1" page="1" pageScale="1" pageWidth="827" pageHeight="1169" math="0" shadow="0">
      <root>
        <mxCell id="0" />
        <mxCell id="1" parent="0" />
        <mxCell id="o_KKrgUPadVgS8PC8bc3-5" value="" style="rounded=0;whiteSpace=wrap;html=1;fontSize=16;fillColor=#f9f7ed;strokeColor=#36393d;" vertex="1" parent="1">
          <mxGeometry x="174" y="235" width="236" height="90" as="geometry" />
        </mxCell>
        <mxCell id="o_KKrgUPadVgS8PC8bc3-3" value="Hi." style="text;html=1;align=center;verticalAlign=middle;resizable=0;points=[];autosize=1;strokeColor=#6c8ebf;fontSize=16;fillColor=#dae8fc;" vertex="1" parent="1">
          <mxGeometry x="220" y="270" width="40" height="20" as="geometry" />
        </mxCell>
        <mxCell id="o_KKrgUPadVgS8PC8bc3-4" value="&lt;span&gt;I am Xiaolin&lt;/span&gt;" style="text;html=1;align=center;verticalAlign=middle;resizable=0;points=[];autosize=1;strokeColor=#d79b00;fontSize=16;fillColor=#ffe6cc;" vertex="1" parent="1">
          <mxGeometry x="260" y="270" width="100" height="20" as="geometry" />
        </mxCell>
        <mxCell id="o_KKrgUPadVgS8PC8bc3-6" value="同一个TCP 报文" style="text;html=1;align=center;verticalAlign=middle;resizable=0;points=[];autosize=1;strokeColor=none;fontSize=16;" vertex="1" parent="1">
          <mxGeometry x="227" y="340" width="130" height="20" as="geometry" />
        </mxCell>
      </root>
    </mxGraphModel>
  </diagram>
</mxfile>
